<svg xmlns="http://www.w3.org/2000/svg" width="590" height="300" viewBox="0 0 590 300">
<rect x="175.0" y="40.0" width="150" height="40" rx="8" ry="8" fill="#f0f0f5" stroke="#2b2b2b" stroke-width="1.5"/>
<text x="250.0" y="64.0" text-anchor="middle" font-family="Helvetica" font-size="12">Sql</text>
<rect x="40.0" y="130.0" width="150" height="40" rx="8" ry="8" fill="#ffffff" stroke="#2b2b2b" stroke-width="1.5"/>
<text x="115.0" y="154.0" text-anchor="middle" font-family="Helvetica" font-size="12">Tablename</text>
<rect x="310.0" y="130.0" width="150" height="40" rx="8" ry="8" fill="#ffffff" stroke="#2b2b2b" stroke-width="1.5"/>
<text x="385.0" y="154.0" text-anchor="middle" font-family="Helvetica" font-size="12">HasParentId</text>
<rect x="220.0" y="220.0" width="150" height="40" rx="8" ry="8" fill="#ffffff" stroke="#2b2b2b" stroke-width="1.5"/>
<text x="295.0" y="244.0" text-anchor="middle" font-family="Helvetica" font-size="12">ParentIdColumn</text>
<rect x="400.0" y="220.0" width="150" height="40" rx="8" ry="8" fill="#ffffff" stroke="#2b2b2b" stroke-width="1.5"/>
<text x="475.0" y="244.0" text-anchor="middle" font-family="Helvetica" font-size="12">HierarchyNameField</text>
<line x1="250.0" y1="80.0" x2="115.0" y2="130.0" stroke="#4a4a4a" stroke-width="1.4"/>
<circle cx="115.0" cy="130.0" r="6" fill="#2b2b2b" stroke="#2b2b2b" stroke-width="1.4"/>
<line x1="250.0" y1="80.0" x2="385.0" y2="130.0" stroke="#4a4a4a" stroke-width="1.4"/>
<circle cx="385.0" cy="130.0" r="6" fill="#ffffff" stroke="#2b2b2b" stroke-width="1.4"/>
<line x1="385.0" y1="170.0" x2="295.0" y2="220.0" stroke="#4a4a4a" stroke-width="1.4"/>
<circle cx="295.0" cy="220.0" r="6" fill="#2b2b2b" stroke="#2b2b2b" stroke-width="1.4"/>
<line x1="385.0" y1="170.0" x2="475.0" y2="220.0" stroke="#4a4a4a" stroke-width="1.4"/>
<circle cx="475.0" cy="220.0" r="6" fill="#2b2b2b" stroke="#2b2b2b" stroke-width="1.4"/>
</svg>
