<?xml version="1.0" encoding="UTF-8" standalone="no"?>
<svg
   width="20"
   height="20"
   viewBox="0 0 20 20"
   fill="none"
   version="1.1"
   id="svg1"
   sodipodi:docname="ic_fluent_arrow_download_fpml_20_regular.svg"
   inkscape:version="1.4.2 (ebf0e940d0, 2025-05-08)"
   xmlns:inkscape="http://www.inkscape.org/namespaces/inkscape"
   xmlns:sodipodi="http://sodipodi.sourceforge.net/DTD/sodipodi-0.dtd"
   xmlns="http://www.w3.org/2000/svg"
   xmlns:svg="http://www.w3.org/2000/svg">
  <defs
     id="defs1" />
  <sodipodi:namedview
     id="namedview1"
     pagecolor="#ffffff"
     bordercolor="#666666"
     borderopacity="1.0"
     inkscape:showpageshadow="2"
     inkscape:pageopacity="0.0"
     inkscape:pagecheckerboard="0"
     inkscape:deskcolor="#d1d1d1"
     inkscape:zoom="42.35"
     inkscape:cx="10"
     inkscape:cy="10"
     inkscape:window-width="1920"
     inkscape:window-height="1056"
     inkscape:window-x="0"
     inkscape:window-y="0"
     inkscape:window-maximized="1"
     inkscape:current-layer="svg1" />
  <!-- Shortened download arrow - horizontal bar is now half the length -->
  <path
     d="m 12.5,17.278665 c 0.2761,0 0.5,0.16144 0.5,0.360518 0,0.177014 -0.1769,0.324249 -0.4101,0.354749 L 12.5,17.9997 h -5 C 7.22386,17.9997 7,17.838333 7,17.639183 7,17.462241 7.17688,17.315006 7.41012,17.284505 L 7.5,17.278665 Z M 10.0001,6.4647599 c 0.2455,0 0.4496,0.1276305 0.4919,0.2958191 l 0.008,0.064806 -0.004,8.503817 1.6454,-1.188554 c 0.1734,-0.125245 0.4428,-0.139304 0.6378,-0.04211 l 0.0693,0.04167 c 0.1737,0.125028 0.1933,0.319275 0.0585,0.459877 l -0.0578,0.04997 -2.4918,1.802586 c -0.0724,0.05235 -0.1617,0.0853 -0.2553,0.09879 l -0.10602,0.007 c -0.16097,0 -0.30416,-0.05487 -0.39557,-0.140097 L 7.14386,14.650492 c -0.1954,-0.140746 -0.19563,-0.369026 -5e-4,-0.509916 0.17344,-0.125172 0.44285,-0.139232 0.63781,-0.04204 L 7.85046,14.140215 9.496,15.323434 9.5,6.8251766 c 8e-5,-0.1991067 0.224,-0.3604167 0.5001,-0.3604167 z"
     fill="#212121"
     id="path1"
     style="stroke-width:0.849137" />
  <!-- Text label positioned at the top of the icon -->
  <text
     x="10"
     y="5.8193626"
     font-family="Arial, sans-serif"
     font-size="7"
     fill="#212121"
     font-weight="bold"
     text-anchor="middle"
     id="text1"
     style="font-style:normal;font-variant:normal;font-weight:bold;font-stretch:normal;font-size:7px;font-family:FreeMono;-inkscape-font-specification:'FreeMono, Bold';font-variant-ligatures:normal;font-variant-caps:normal;font-variant-numeric:normal;font-variant-east-asian:normal;text-anchor:middle;fill:#212121">FPML</text>
</svg>
