<svg width="20" height="20" viewBox="0 0 20 20" fill="none" xmlns="http://www.w3.org/2000/svg">
  <path d="M10 2C7.79086 2 6 3.79086 6 6C6 8.20914 7.79086 10 10 10C12.2091 10 14 8.20914 14 6C14 3.79086 12.2091 2 10 2ZM7 6C7 4.34315 8.34315 3 10 3C11.6569 3 13 4.34315 13 6C13 7.65685 11.6569 9 10 9C8.34315 9 7 7.65685 7 6Z" fill="#212121"/>
  <path d="M4 16.5C4 13.4624 6.46243 11 9.5 11H10.5C13.5376 11 16 13.4624 16 16.5C16 17.3284 15.3284 18 14.5 18H5.5C4.67157 18 4 17.3284 4 16.5ZM9.5 12C7.01472 12 5 14.0147 5 16.5C5 16.7761 5.22386 17 5.5 17H14.5C14.7761 17 15 16.7761 15 16.5C15 14.0147 12.9853 12 10.5 12H9.5Z" fill="#212121"/>
</svg>
