<?xml version="1.0" encoding="UTF-8" standalone="no"?>
<svg
   width="20"
   height="20"
   viewBox="0 0 20 20"
   fill="none"
   version="1.1"
   id="svg1"
   sodipodi:docname="ic_fluent_arrow_upload_fpml_20_regular.svg"
   inkscape:version="1.4.2 (ebf0e940d0, 2025-05-08)"
   xmlns:inkscape="http://www.inkscape.org/namespaces/inkscape"
   xmlns:sodipodi="http://sodipodi.sourceforge.net/DTD/sodipodi-0.dtd"
   xmlns="http://www.w3.org/2000/svg"
   xmlns:svg="http://www.w3.org/2000/svg">
  <defs
     id="defs1" />
  <sodipodi:namedview
     id="namedview1"
     pagecolor="#ffffff"
     bordercolor="#666666"
     borderopacity="1.0"
     inkscape:showpageshadow="2"
     inkscape:pageopacity="0.0"
     inkscape:pagecheckerboard="0"
     inkscape:deskcolor="#d1d1d1"
     inkscape:zoom="42.35"
     inkscape:cx="10"
     inkscape:cy="10"
     inkscape:window-width="1920"
     inkscape:window-height="1056"
     inkscape:window-x="0"
     inkscape:window-y="0"
     inkscape:window-maximized="1"
     inkscape:current-layer="svg1" />
  <!-- Shortened upload arrow - horizontal bar is now half the length -->
  <path
     d="m 12.5,2.696417 c 0.2761,0 0.5,-0.1554564 0.5,-0.3472334 C 13,2.1787197 12.8231,2.0369511 12.5899,2.0075474 L 12.5,2.00195 h -5 C 7.22386,2.00195 7,2.1574134 7,2.3491836 7,2.5196474 7.17688,2.6614228 7.41012,2.6908266 L 7.5,2.696417 Z m -2.4999,10.415444 c 0.2455,0 0.4496,-0.122922 0.4919,-0.284871 L 10.5,12.76456 10.496,4.5741124 12.1414,5.7188303 c 0.1734,0.1206427 0.4428,0.1342127 0.6378,0.040585 l 0.0693,-0.040133 C 13.0222,5.5988519 13.0418,5.4117624 12.907,5.2763413 L 12.8492,5.2282148 10.3574,3.4920471 C 10.2849,3.4416085 10.1956,3.4098844 10.102,3.3968847 l -0.10592,-0.00676 c -0.16097,0 -0.30416,0.052863 -0.39557,0.1349489 L 7.14386,5.227812 c -0.1954,0.1355113 -0.19563,0.3553658 -5e-4,0.4910646 0.17344,0.1206221 0.44285,0.1341503 0.63781,0.040494 L 7.85046,5.7192239 9.496,4.5796659 9.5,12.764765 c 8e-5,0.191744 0.224,0.347096 0.5001,0.347096 z"
     fill="#212121"
     id="path1"
     style="stroke-width:0.833347" />
  <!-- Text label positioned at the bottom of the icon -->
  <text
     x="10.023613"
     y="17.912632"
     font-family="Arial, sans-serif"
     font-size="7px"
     fill="#212121"
     font-weight="bold"
     text-anchor="middle"
     id="text1"
     style="-inkscape-font-specification:'FreeMono, Bold';font-family:FreeMono;font-weight:bold;font-style:normal;font-stretch:normal;font-variant:normal;font-size:7px;font-variant-ligatures:normal;font-variant-caps:normal;font-variant-numeric:normal;font-variant-east-asian:normal;text-anchor:middle;fill:#212121">FPML</text>
</svg>
