<?xml version="1.0" encoding="UTF-8" standalone="no"?>
<svg
   width="20"
   height="20"
   viewBox="0 0 20 20"
   fill="none"
   version="1.1"
   id="svg1"
   sodipodi:docname="ic_fluent_arrow_upload_csv_20_regular.svg"
   inkscape:version="1.4.2 (ebf0e940d0, 2025-05-08)"
   xmlns:inkscape="http://www.inkscape.org/namespaces/inkscape"
   xmlns:sodipodi="http://sodipodi.sourceforge.net/DTD/sodipodi-0.dtd"
   xmlns="http://www.w3.org/2000/svg"
   xmlns:svg="http://www.w3.org/2000/svg">
  <defs
     id="defs1" />
  <sodipodi:namedview
     id="namedview1"
     pagecolor="#ffffff"
     bordercolor="#666666"
     borderopacity="1.0"
     inkscape:showpageshadow="2"
     inkscape:pageopacity="0.0"
     inkscape:pagecheckerboard="0"
     inkscape:deskcolor="#d1d1d1"
     inkscape:zoom="42.35"
     inkscape:cx="10"
     inkscape:cy="10"
     inkscape:window-width="1920"
     inkscape:window-height="1056"
     inkscape:window-x="0"
     inkscape:window-y="0"
     inkscape:window-maximized="1"
     inkscape:current-layer="svg1" />
  <!-- Shortened upload arrow - horizontal bar is now half the length -->
  <path
     d="m 12.5,2.7126531 c 0.2761,0 0.5,-0.1590909 0.5,-0.3553515 C 13,2.1828524 12.8231,2.0377695 12.5899,2.0076782 L 12.5,2.00195 h -5 C 7.22386,2.00195 7,2.161048 7,2.3573016 7,2.5317507 7.17688,2.6768408 7.41012,2.706932 L 7.5,2.7126531 Z M 10.0001,13.371601 c 0.2455,0 0.4496,-0.125795 0.4919,-0.291531 L 10.5,13.01618 10.496,4.6342474 12.1414,5.8057278 c 0.1734,0.1234633 0.4428,0.1373505 0.6378,0.041533 l 0.0693,-0.041071 C 13.0222,5.6829444 13.0418,5.491481 12.907,5.3528939 L 12.8492,5.3036421 10.3574,3.5268844 C 10.2849,3.475266 10.1956,3.442801 10.102,3.4294968 l -0.10592,-0.00692 c -0.16097,0 -0.30416,0.054099 -0.39557,0.1381038 L 7.14386,5.3032299 c -0.1954,0.1386795 -0.19563,0.363674 -5e-4,0.5025453 0.17344,0.123442 0.44285,0.1372866 0.63781,0.041441 L 7.85046,5.8061305 9.496,4.6399307 9.5,13.016391 c 8e-5,0.196225 0.224,0.35521 0.5001,0.35521 z"
     fill="#212121"
     id="path1"
     style="stroke-width:0.843032" />
  <!-- Text label positioned at the bottom of the icon -->
  <text
     x="10.070839"
     y="18.101536"
     font-family="Arial, sans-serif"
     font-size="7px"
     fill="#212121"
     font-weight="bold"
     text-anchor="middle"
     id="text1"
     style="font-style:normal;font-variant:normal;font-weight:bold;font-stretch:normal;font-size:7px;font-family:FreeMono;-inkscape-font-specification:'FreeMono, Bold';font-variant-ligatures:normal;font-variant-caps:normal;font-variant-numeric:normal;font-variant-east-asian:normal;text-anchor:middle;fill:#212121">CSV</text>
</svg>
