<?xml version="1.0" encoding="UTF-8" standalone="no"?>
<svg
   width="20"
   height="20"
   viewBox="0 0 20 20"
   fill="none"
   version="1.1"
   id="svg1"
   sodipodi:docname="ic_fluent_arrow_download_csv_20_regular.svg"
   inkscape:version="1.4.2 (ebf0e940d0, 2025-05-08)"
   xmlns:inkscape="http://www.inkscape.org/namespaces/inkscape"
   xmlns:sodipodi="http://sodipodi.sourceforge.net/DTD/sodipodi-0.dtd"
   xmlns="http://www.w3.org/2000/svg"
   xmlns:svg="http://www.w3.org/2000/svg">
  <defs
     id="defs1" />
  <sodipodi:namedview
     id="namedview1"
     pagecolor="#ffffff"
     bordercolor="#666666"
     borderopacity="1.0"
     inkscape:showpageshadow="2"
     inkscape:pageopacity="0.0"
     inkscape:pagecheckerboard="0"
     inkscape:deskcolor="#d1d1d1"
     inkscape:zoom="42.35"
     inkscape:cx="10"
     inkscape:cy="10"
     inkscape:window-width="1920"
     inkscape:window-height="1056"
     inkscape:window-x="0"
     inkscape:window-y="0"
     inkscape:window-maximized="1"
     inkscape:current-layer="svg1" />
  <!-- Shortened download arrow - horizontal bar is now half the length -->
  <path
     d="m 12.5,17.343609 c 0.2761,0 0.5,0.146899 0.5,0.328046 0,0.16107 -0.1769,0.295044 -0.4101,0.322796 L 12.5,17.9997 h -5 C 7.22386,17.9997 7,17.852867 7,17.671655 7,17.51065 7.17688,17.376676 7.41012,17.348923 L 7.5,17.343609 Z M 10.0001,7.503721 c 0.2455,0 0.4496,0.1161346 0.4919,0.2691744 l 0.008,0.058969 -0.004,7.7378716 1.6454,-1.0815 c 0.1734,-0.113963 0.4428,-0.126757 0.6378,-0.03832 l 0.0693,0.03792 c 0.1737,0.113766 0.1933,0.290517 0.0585,0.418455 l -0.0578,0.04547 -2.4918,1.640227 c -0.0724,0.04763 -0.1617,0.07762 -0.2553,0.08988 l -0.10602,0.0064 c -0.16097,0 -0.30416,-0.04993 -0.39557,-0.127479 L 7.14386,14.952158 C 6.94846,14.824089 6.94823,14.61637 7.14336,14.48817 7.3168,14.374273 7.58621,14.361479 7.78117,14.44992 L 7.85046,14.487842 9.496,15.564487 9.5,7.8316746 c 8e-5,-0.181173 0.224,-0.3279536 0.5001,-0.3279536 z"
     fill="#212121"
     id="path1"
     style="stroke-width:0.809994" />
  <!-- Text label positioned at the top of the icon -->
  <text
     x="10"
     y="7"
     font-family="Arial, sans-serif"
     font-size="7"
     fill="#212121"
     font-weight="bold"
     text-anchor="middle"
     id="text1"
     style="-inkscape-font-specification:'FreeMono, Bold';font-family:FreeMono;font-weight:bold;font-style:normal;font-stretch:normal;font-variant:normal;font-size:7px;font-variant-ligatures:normal;font-variant-caps:normal;font-variant-numeric:normal;font-variant-east-asian:normal;text-anchor:middle;fill:#212121">CSV</text>
</svg>
