<svg xmlns="http://www.w3.org/2000/svg" width="1310" height="210" viewBox="0 0 1310 210">
<rect x="580.0" y="40.0" width="150" height="40" rx="8" ry="8" fill="#f0f0f5" stroke="#2b2b2b" stroke-width="1.5"/>
<text x="655.0" y="64.0" text-anchor="middle" font-family="Helvetica" font-size="12">PasteBlockUsage</text>
<rect x="40.0" y="130.0" width="150" height="40" rx="8" ry="8" fill="#ffffff" stroke="#2b2b2b" stroke-width="1.5"/>
<text x="115.0" y="154.0" text-anchor="middle" font-family="Helvetica" font-size="12">SqlBlocks</text>
<rect x="220.0" y="130.0" width="150" height="40" rx="8" ry="8" fill="#ffffff" stroke="#2b2b2b" stroke-width="1.5"/>
<text x="295.0" y="154.0" text-anchor="middle" font-family="Helvetica" font-size="12">RepositoryBlocks</text>
<rect x="400.0" y="130.0" width="150" height="40" rx="8" ry="8" fill="#ffffff" stroke="#2b2b2b" stroke-width="1.5"/>
<text x="475.0" y="154.0" text-anchor="middle" font-family="Helvetica" font-size="12">ServiceBlocks</text>
<rect x="580.0" y="130.0" width="150" height="40" rx="8" ry="8" fill="#ffffff" stroke="#2b2b2b" stroke-width="1.5"/>
<text x="655.0" y="154.0" text-anchor="middle" font-family="Helvetica" font-size="12">ProtocolBlocks</text>
<rect x="760.0" y="130.0" width="150" height="40" rx="8" ry="8" fill="#ffffff" stroke="#2b2b2b" stroke-width="1.5"/>
<text x="835.0" y="154.0" text-anchor="middle" font-family="Helvetica" font-size="12">NatsBlocks</text>
<rect x="940.0" y="130.0" width="150" height="40" rx="8" ry="8" fill="#ffffff" stroke="#2b2b2b" stroke-width="1.5"/>
<text x="1015.0" y="154.0" text-anchor="middle" font-family="Helvetica" font-size="12">QtBlocks</text>
<rect x="1120.0" y="130.0" width="150" height="40" rx="8" ry="8" fill="#ffffff" stroke="#2b2b2b" stroke-width="1.5"/>
<text x="1195.0" y="154.0" text-anchor="middle" font-family="Helvetica" font-size="12">GeneratorBlocks</text>
<line x1="655.0" y1="80.0" x2="115.0" y2="130.0" stroke="#4a4a4a" stroke-width="1.4"/>
<circle cx="115.0" cy="130.0" r="6" fill="#ffffff" stroke="#2b2b2b" stroke-width="1.4"/>
<line x1="655.0" y1="80.0" x2="295.0" y2="130.0" stroke="#4a4a4a" stroke-width="1.4"/>
<circle cx="295.0" cy="130.0" r="6" fill="#ffffff" stroke="#2b2b2b" stroke-width="1.4"/>
<line x1="655.0" y1="80.0" x2="475.0" y2="130.0" stroke="#4a4a4a" stroke-width="1.4"/>
<circle cx="475.0" cy="130.0" r="6" fill="#ffffff" stroke="#2b2b2b" stroke-width="1.4"/>
<line x1="655.0" y1="80.0" x2="655.0" y2="130.0" stroke="#4a4a4a" stroke-width="1.4"/>
<circle cx="655.0" cy="130.0" r="6" fill="#ffffff" stroke="#2b2b2b" stroke-width="1.4"/>
<line x1="655.0" y1="80.0" x2="835.0" y2="130.0" stroke="#4a4a4a" stroke-width="1.4"/>
<circle cx="835.0" cy="130.0" r="6" fill="#ffffff" stroke="#2b2b2b" stroke-width="1.4"/>
<line x1="655.0" y1="80.0" x2="1015.0" y2="130.0" stroke="#4a4a4a" stroke-width="1.4"/>
<circle cx="1015.0" cy="130.0" r="6" fill="#ffffff" stroke="#2b2b2b" stroke-width="1.4"/>
<line x1="655.0" y1="80.0" x2="1195.0" y2="130.0" stroke="#4a4a4a" stroke-width="1.4"/>
<circle cx="1195.0" cy="130.0" r="6" fill="#ffffff" stroke="#2b2b2b" stroke-width="1.4"/>
<path d="M 633.1 82.0 A 22 22 0 0 1 676.9 82.0" fill="#2b2b2b" stroke="#2b2b2b" stroke-width="1.4"/>
</svg>
