<svg xmlns="http://www.w3.org/2000/svg" xmlns:xlink="http://www.w3.org/1999/xlink" contentStyleType="text/css" height="216px" preserveAspectRatio="none" style="width:443px;height:216px;background:#FFFFFF;" version="1.1" viewBox="0 0 443 216" width="443px" zoomAndPan="magnify"><defs/><g><!--cluster exception--><g id="cluster_exception"><path d="M8.5,6.602 L77.5,6.602 A3.75,3.75 0 0 1 80,9.102 L87,31.6699 L433.5,31.6699 A2.5,2.5 0 0 1 436,34.1699 L436,207.102 A2.5,2.5 0 0 1 433.5,209.602 L8.5,209.602 A2.5,2.5 0 0 1 6,207.102 L6,9.102 A2.5,2.5 0 0 1 8.5,6.602 " fill="#F2F2F2" style="stroke:#000000;stroke-width:1.5;"/><line style="stroke:#000000;stroke-width:1.5;" x1="6" x2="87" y1="31.6699" y2="31.6699"/><text fill="#000000" font-family="sans-serif" font-size="14" font-weight="bold" lengthAdjust="spacing" textLength="68" x="10" y="23.5679">exception</text></g><!--class invalid_enum_value--><g id="elem_invalid_enum_value"><rect codeLine="2" fill="#E8C2F8" height="61.412" id="invalid_enum_value" rx="2.5" ry="2.5" style="stroke:#181818;stroke-width:0.5;" width="164" x="139" y="132.602"/><ellipse cx="154" cy="155.308" fill="#ADD1B2" rx="11" ry="11" style="stroke:#181818;stroke-width:1.0;"/><path d="M156.9688,160.9486 Q156.3906,161.2455 155.75,161.3861 Q155.1094,161.5424 154.4063,161.5424 Q151.9063,161.5424 150.5781,159.9017 Q149.2656,158.2455 149.2656,155.1205 Q149.2656,151.9955 150.5781,150.3392 Q151.9063,148.683 154.4063,148.683 Q155.1094,148.683 155.75,148.8392 Q156.4063,148.9955 156.9688,149.2924 L156.9688,152.0111 Q156.3438,151.433 155.75,151.1674 Q155.1563,150.8861 154.5313,150.8861 Q153.1875,150.8861 152.5,151.9642 Q151.8125,153.0267 151.8125,155.1205 Q151.8125,157.2142 152.5,158.2924 Q153.1875,159.3549 154.5313,159.3549 Q155.1563,159.3549 155.75,159.0892 Q156.3438,158.808 156.9688,158.2299 L156.9688,160.9486 Z " fill="#000000"/><text fill="#000000" font-family="sans-serif" font-size="12" font-style="italic" lengthAdjust="spacing" textLength="85" x="191.5" y="150.4301">&#171;std::exception&#187;</text><text fill="#000000" font-family="sans-serif" font-size="14" lengthAdjust="spacing" textLength="132" x="168" y="168.912">invalid_enum_value</text><line style="stroke:#181818;stroke-width:0.5;" x1="140" x2="302" y1="178.014" y2="178.014"/><line style="stroke:#181818;stroke-width:0.5;" x1="140" x2="302" y1="186.014" y2="186.014"/></g><g id="elem_GMN4"><path d="M22,44.602 L22,72.308 A0,0 0 0 0 22,72.308 L217,72.308 L221,132.312 L225,72.308 L420,72.308 A0,0 0 0 0 420,72.308 L420,54.602 L410,44.602 L22,44.602 A0,0 0 0 0 22,44.602 " fill="#FEFFDD" style="stroke:#181818;stroke-width:0.5;"/><path d="M410,44.602 L410,54.602 L420,54.602 L410,44.602 " fill="#FEFFDD" style="stroke:#181818;stroke-width:0.5;"/><text fill="#000000" font-family="sans-serif" font-size="13" lengthAdjust="spacing" textLength="377" x="28" y="63.499">The exception thrown when an enum has an unexpected value.</text></g><!--SRC=[ROqn2uCm58HtVyM1UmSd4N4fzHTqbqVoIWBw4ffd5QJ_lIP3wT2xvORxxeGMJf4CWtV3KNqGr6EJZQF2AJDJIl3oejdRYMLTfZEkZBvFQhlkomq3wbjxRSQsS1AKeI4YFFxGfP9rTx_NwfvX4soE1IJ8VJXAEQ_2UsIZR54MBcM2nPQdwlq1]--></g></svg>