<?xml version="1.0" encoding="UTF-8" standalone="no"?>
<svg
   width="20"
   height="20"
   viewBox="0 0 20 20"
   fill="none"
   version="1.1"
   id="svg1"
   sodipodi:docname="ic_fluent_arrow_download_ore_20_filled.svg"
   inkscape:version="1.4.2 (ebf0e940d0, 2025-05-08)"
   xmlns:inkscape="http://www.inkscape.org/namespaces/inkscape"
   xmlns:sodipodi="http://sodipodi.sourceforge.net/DTD/sodipodi-0.dtd"
   xmlns="http://www.w3.org/2000/svg"
   xmlns:svg="http://www.w3.org/2000/svg">
  <defs
     id="defs1" />
  <sodipodi:namedview
     id="namedview1"
     pagecolor="#ffffff"
     bordercolor="#666666"
     borderopacity="1.0"
     inkscape:showpageshadow="2"
     inkscape:pageopacity="0.0"
     inkscape:pagecheckerboard="0"
     inkscape:deskcolor="#d1d1d1"
     inkscape:zoom="42.35"
     inkscape:cx="10"
     inkscape:cy="10"
     inkscape:window-width="1920"
     inkscape:window-height="1056"
     inkscape:window-x="0"
     inkscape:window-y="0"
     inkscape:window-maximized="1"
     inkscape:current-layer="svg1" />
  <!-- Shortened download arrow (filled version) - horizontal bar is now half the length -->
  <path
     d="m 12.5,17.293425 c 0.2761,0 0.5,0.158135 0.5,0.353138 0,0.17339 -0.1769,0.317611 -0.4101,0.347486 L 12.5,17.9997 h -5 C 7.22386,17.9997 7,17.841636 7,17.646563 7,17.473243 7.17688,17.329021 7.41012,17.299145 L 7.5,17.293425 Z M 10.0001,6.7008874 c 0.2455,0 0.4496,0.1250177 0.4919,0.2897635 l 0.008,0.06348 -0.004,8.3297381 1.6454,-1.164224 c 0.1734,-0.122679 0.4428,-0.136452 0.6378,-0.04124 l 0.0693,0.04083 c 0.1737,0.122468 0.1933,0.312739 0.0585,0.450463 l -0.0578,0.04895 -2.4918,1.765687 c -0.0724,0.05128 -0.1617,0.08355 -0.2553,0.09676 l -0.10602,0.0069 c -0.16097,0 -0.30416,-0.05375 -0.39557,-0.137229 L 7.14386,14.719052 c -0.1954,-0.137865 -0.19563,-0.361471 -5e-4,-0.499478 0.17344,-0.122608 0.44285,-0.136381 0.63781,-0.04117 L 7.85046,14.219221 9.496,15.378219 9.5,7.0539261 c 8e-5,-0.1950308 0.224,-0.3530387 0.5001,-0.3530387 z"
     fill="#212121"
     id="path1"
     style="stroke-width:0.840402" />
  <!-- Text label positioned at the top of the icon -->
  <text
     x="10.094451"
     y="5.9846516"
     font-family="Arial, sans-serif"
     font-size="7"
     fill="#212121"
     font-weight="bold"
     text-anchor="middle"
     id="text1"
     style="font-style:normal;font-variant:normal;font-weight:bold;font-stretch:normal;font-size:7px;font-family:FreeMono;-inkscape-font-specification:'FreeMono, Bold';font-variant-ligatures:normal;font-variant-caps:normal;font-variant-numeric:normal;font-variant-east-asian:normal;text-anchor:middle;fill:#212121">ORE</text>
</svg>
