<?xml version="1.0" encoding="UTF-8" standalone="no"?>
<svg
   width="20"
   height="20"
   viewBox="0 0 20 20"
   fill="none"
   version="1.1"
   id="svg1"
   sodipodi:docname="ic_fluent_arrow_upload_ore_20_filled.svg"
   inkscape:version="1.4.2 (ebf0e940d0, 2025-05-08)"
   xmlns:inkscape="http://www.inkscape.org/namespaces/inkscape"
   xmlns:sodipodi="http://sodipodi.sourceforge.net/DTD/sodipodi-0.dtd"
   xmlns="http://www.w3.org/2000/svg"
   xmlns:svg="http://www.w3.org/2000/svg">
  <defs
     id="defs1" />
  <sodipodi:namedview
     id="namedview1"
     pagecolor="#ffffff"
     bordercolor="#666666"
     borderopacity="1.0"
     inkscape:showpageshadow="2"
     inkscape:pageopacity="0.0"
     inkscape:pagecheckerboard="0"
     inkscape:deskcolor="#d1d1d1"
     inkscape:zoom="42.35"
     inkscape:cx="10"
     inkscape:cy="10"
     inkscape:window-width="1920"
     inkscape:window-height="1056"
     inkscape:window-x="0"
     inkscape:window-y="0"
     inkscape:window-maximized="1"
     inkscape:current-layer="svg1" />
  <!-- Shortened upload arrow (filled version) - horizontal bar is now half the length -->
  <path
     d="m 12.5,2.7170812 c 0.2761,0 0.5,-0.1600821 0.5,-0.3575657 C 13,2.1839794 12.8231,2.0379927 12.5899,2.007714 L 12.5,2.00195 h -5 C 7.22386,2.00195 7,2.1620393 7,2.3595155 7,2.5350516 7.17688,2.6810457 7.41012,2.7113243 L 7.5,2.7170812 Z M 10.0001,13.442439 c 0.2455,0 0.4496,-0.126579 0.4919,-0.293347 l 0.008,-0.06429 -0.004,-8.4341573 1.6454,1.1787792 c 0.1734,0.1242326 0.4428,0.1382062 0.6378,0.041792 l 0.0693,-0.041328 C 13.0222,5.7058787 13.0418,5.5132224 12.907,5.3737718 L 12.8492,5.3242133 10.3574,3.5363854 C 10.2849,3.4844455 10.1956,3.4517783 10.102,3.438391 L 9.99608,3.431421 c -0.16097,0 -0.30416,0.054436 -0.39557,0.1389644 L 7.14386,5.3237984 C 6.94846,5.463342 6.94823,5.6897382 7.14336,5.8294748 7.3168,5.953686 7.58621,5.9676168 7.78117,5.8711742 L 7.85046,5.8298324 9.496,4.6563666 9.5,13.085017 c 8e-5,0.197448 0.224,0.357422 0.5001,0.357422 z"
     fill="#212121"
     id="path1"
     style="stroke-width:0.845654" />
  <!-- Text label positioned at the bottom of the icon -->
  <text
     x="10"
     y="18.290438"
     font-family="Arial, sans-serif"
     font-size="7px"
     fill="#212121"
     font-weight="bold"
     text-anchor="middle"
     id="text1"
     style="font-style:normal;font-variant:normal;font-weight:bold;font-stretch:normal;font-size:7px;font-family:FreeMono;-inkscape-font-specification:'FreeMono, Bold';font-variant-ligatures:normal;font-variant-caps:normal;font-variant-numeric:normal;font-variant-east-asian:normal;text-anchor:middle;fill:#212121">ORE</text>
</svg>
