<?xml version="1.0" encoding="UTF-8" standalone="no"?>
<svg
   width="20"
   height="20"
   viewBox="0 0 20 20"
   fill="none"
   version="1.1"
   id="svg1"
   sodipodi:docname="ic_fluent_arrow_upload_fpml_20_filled.svg"
   inkscape:version="1.4.2 (ebf0e940d0, 2025-05-08)"
   xmlns:inkscape="http://www.inkscape.org/namespaces/inkscape"
   xmlns:sodipodi="http://sodipodi.sourceforge.net/DTD/sodipodi-0.dtd"
   xmlns="http://www.w3.org/2000/svg"
   xmlns:svg="http://www.w3.org/2000/svg">
  <defs
     id="defs1" />
  <sodipodi:namedview
     id="namedview1"
     pagecolor="#ffffff"
     bordercolor="#666666"
     borderopacity="1.0"
     inkscape:showpageshadow="2"
     inkscape:pageopacity="0.0"
     inkscape:pagecheckerboard="0"
     inkscape:deskcolor="#d1d1d1"
     inkscape:zoom="42.35"
     inkscape:cx="10"
     inkscape:cy="10"
     inkscape:window-width="1920"
     inkscape:window-height="1056"
     inkscape:window-x="0"
     inkscape:window-y="0"
     inkscape:window-maximized="1"
     inkscape:current-layer="svg1" />
  <!-- Shortened upload arrow (filled version) - horizontal bar is now half the length -->
  <path
     d="m 12.5,2.700845 c 0.2761,0 0.5,-0.1564476 0.5,-0.3494474 C 13,2.1798468 12.8231,2.0371744 12.5899,2.0075831 L 12.5,2.00195 h -5 C 7.22386,2.00195 7,2.1584047 7,2.3513976 7,2.5229483 7.17688,2.6656277 7.41012,2.695219 L 7.5,2.700845 Z m -2.4999,10.481854 c 0.2455,0 0.4496,-0.123709 0.4919,-0.286687 l 0.008,-0.06283 -0.004,-8.2426703 1.6454,1.1520166 c 0.1734,0.1214114 0.4428,0.135068 0.6378,0.040843 l 0.0693,-0.040389 C 13.0222,5.621786 13.0418,5.4335039 12.907,5.2972194 L 12.8492,5.2487861 10.3574,3.5015482 C 10.2849,3.4507873 10.1956,3.4188624 10.102,3.405779 L 9.99608,3.398969 c -0.16097,0 -0.30416,0.0532 -0.39557,0.1358094 L 7.14386,5.2483806 c -0.1954,0.1363753 -0.19563,0.3576316 -5e-4,0.4941957 0.17344,0.1213915 0.44285,0.1350056 0.63781,0.040753 L 7.85046,5.7429257 9.496,4.5961018 9.5,12.833391 c 8e-5,0.192965 0.224,0.349308 0.5001,0.349308 z"
     fill="#212121"
     id="path1"
     style="stroke-width:0.835999" />
  <!-- Text label positioned at the bottom of the icon -->
  <text
     x="10.047226"
     y="18.101534"
     font-family="Arial, sans-serif"
     font-size="7"
     fill="#212121"
     font-weight="bold"
     text-anchor="middle"
     id="text1"
     style="font-style:normal;font-variant:normal;font-weight:bold;font-stretch:normal;font-size:7px;font-family:FreeMono;-inkscape-font-specification:'FreeMono, Bold';font-variant-ligatures:normal;font-variant-caps:normal;font-variant-numeric:normal;font-variant-east-asian:normal;text-anchor:middle;fill:#212121">FPML</text>
</svg>
