<?xml version="1.0" encoding="UTF-8" standalone="no"?>
<svg
   width="24"
   height="24"
   viewBox="0 0 24 24"
   fill="none"
   version="1.1"
   id="svg2"
   sodipodi:docname="import_csv.svg"
   inkscape:version="1.4.2 (ebf0e940d0, 2025-05-08)"
   xmlns:inkscape="http://www.inkscape.org/namespaces/inkscape"
   xmlns:sodipodi="http://sodipodi.sourceforge.net/DTD/sodipodi-0.dtd"
   xmlns="http://www.w3.org/2000/svg"
   xmlns:svg="http://www.w3.org/2000/svg">
  <defs
     id="defs2" />
  <sodipodi:namedview
     id="namedview2"
     pagecolor="#ffffff"
     bordercolor="#666666"
     borderopacity="1.0"
     inkscape:showpageshadow="2"
     inkscape:pageopacity="0.0"
     inkscape:pagecheckerboard="0"
     inkscape:deskcolor="#d1d1d1"
     inkscape:zoom="35.291667"
     inkscape:cx="12"
     inkscape:cy="12"
     inkscape:window-width="1920"
     inkscape:window-height="1056"
     inkscape:window-x="0"
     inkscape:window-y="0"
     inkscape:window-maximized="1"
     inkscape:current-layer="svg2" />
  <path
     fill-rule="evenodd"
     clip-rule="evenodd"
     d="m 15.5303,12.256103 c -0.2929,-0.143511 -0.7677,-0.143511 -1.0606,0 L 12.75,13.098644 V 9.0861857 c 0,-0.2029478 -0.3358,-0.3674726 -0.75,-0.3674726 -0.4142,0 -0.75,0.1645248 -0.75,0.3674726 V 13.098644 L 9.53033,12.256103 c -0.29289,-0.143511 -0.76777,-0.143511 -1.06066,0 -0.29289,0.14351 -0.29289,0.376144 0,0.519654 l 3.00003,1.469891 c 0.2929,0.14351 0.7677,0.14351 1.0606,0 l 3,-1.469891 c 0.2929,-0.14351 0.2929,-0.376144 0,-0.519654 z"
     fill="#1c274c"
     id="path1"
     style="stroke-width:0.699974" />
  <path
     d="M17.7476 12C17.2996 12 16.9077 12.2742 16.591 12.591L13.591 15.591C12.7123 16.4697 11.2877 16.4697 10.409 15.591L7.40901 12.591C7.09226 12.2742 6.70041 12 6.25245 12H4C4 16.4183 7.58172 20 12 20C16.4183 20 20 16.4183 20 12H17.7476Z"
     fill="#1C274C"
     id="path2" />
  <!-- Text label positioned at the top of the icon -->
  <text
     x="12"
     y="8"
     font-family="Arial, sans-serif"
     font-size="7"
     fill="#1C274C"
     font-weight="bold"
     text-anchor="middle"
     id="text2">CSV</text>
</svg>
