<?xml version="1.0" encoding="UTF-8" standalone="no"?>
<svg
   width="20"
   height="20"
   viewBox="0 0 20 20"
   fill="none"
   version="1.1"
   id="svg1"
   sodipodi:docname="ic_fluent_arrow_download_csv_20_filled.svg"
   inkscape:version="1.4.2 (ebf0e940d0, 2025-05-08)"
   xmlns:inkscape="http://www.inkscape.org/namespaces/inkscape"
   xmlns:sodipodi="http://sodipodi.sourceforge.net/DTD/sodipodi-0.dtd"
   xmlns="http://www.w3.org/2000/svg"
   xmlns:svg="http://www.w3.org/2000/svg">
  <defs
     id="defs1" />
  <sodipodi:namedview
     id="namedview1"
     pagecolor="#ffffff"
     bordercolor="#666666"
     borderopacity="1.0"
     inkscape:showpageshadow="2"
     inkscape:pageopacity="0.0"
     inkscape:pagecheckerboard="0"
     inkscape:deskcolor="#d1d1d1"
     inkscape:zoom="42.35"
     inkscape:cx="10"
     inkscape:cy="10"
     inkscape:window-width="1920"
     inkscape:window-height="1056"
     inkscape:window-x="0"
     inkscape:window-y="0"
     inkscape:window-maximized="1"
     inkscape:current-layer="svg1" />
  <!-- Shortened download arrow (filled version) - horizontal bar is now half the length -->
  <path
     d="m 12.5,17.284569 c 0.2761,0 0.5,0.160118 0.5,0.357566 0,0.175564 -0.1769,0.321594 -0.4101,0.351844 L 12.5,17.9997 h -5 C 7.22386,17.9997 7,17.839654 7,17.642135 7,17.466641 7.17688,17.320611 7.41012,17.290361 L 7.5,17.284569 Z M 10.0001,6.559211 c 0.2455,0 0.4496,0.1265853 0.4919,0.2933968 l 0.008,0.064276 -0.004,8.4341852 1.6454,-1.178822 c 0.1734,-0.124218 0.4428,-0.138163 0.6378,-0.04176 l 0.0693,0.04133 c 0.1737,0.124003 0.1933,0.31666 0.0585,0.45611 l -0.0578,0.04956 -2.4918,1.787827 c -0.0724,0.05192 -0.1617,0.0846 -0.2553,0.09797 l -0.10602,0.0069 c -0.16097,0 -0.30416,-0.05442 -0.39557,-0.13895 L 7.14386,14.677916 c -0.1954,-0.139594 -0.19563,-0.366004 -5e-4,-0.505741 0.17344,-0.124146 0.44285,-0.138091 0.63781,-0.04169 L 7.85046,14.171817 9.496,15.345348 9.5,6.9166764 C 9.50008,6.7192001 9.724,6.559211 10.0001,6.559211 Z"
     fill="#212121"
     id="path1"
     style="stroke-width:0.845654" />
  <!-- Text label positioned at the top of the icon -->
  <text
     x="9.929162"
     y="5.8193626"
     font-family="Arial, sans-serif"
     font-size="7"
     fill="#212121"
     font-weight="bold"
     text-anchor="middle"
     id="text1"
     style="font-style:normal;font-variant:normal;font-weight:bold;font-stretch:normal;font-size:7px;font-family:FreeMono;-inkscape-font-specification:'FreeMono, Bold';font-variant-ligatures:normal;font-variant-caps:normal;font-variant-numeric:normal;font-variant-east-asian:normal;text-anchor:middle;fill:#212121">CSV</text>
</svg>
