<?xml version="1.0" encoding="UTF-8" standalone="no"?>
<svg
   width="20"
   height="20"
   viewBox="0 0 20 20"
   fill="none"
   version="1.1"
   id="svg1"
   sodipodi:docname="ic_fluent_arrow_upload_csv_20_filled.svg"
   inkscape:version="1.4.2 (ebf0e940d0, 2025-05-08)"
   xmlns:inkscape="http://www.inkscape.org/namespaces/inkscape"
   xmlns:sodipodi="http://sodipodi.sourceforge.net/DTD/sodipodi-0.dtd"
   xmlns="http://www.w3.org/2000/svg"
   xmlns:svg="http://www.w3.org/2000/svg">
  <defs
     id="defs1" />
  <sodipodi:namedview
     id="namedview1"
     pagecolor="#ffffff"
     bordercolor="#666666"
     borderopacity="1.0"
     inkscape:showpageshadow="2"
     inkscape:pageopacity="0.0"
     inkscape:pagecheckerboard="0"
     inkscape:deskcolor="#d1d1d1"
     inkscape:zoom="42.35"
     inkscape:cx="10"
     inkscape:cy="10"
     inkscape:window-width="1920"
     inkscape:window-height="1056"
     inkscape:window-x="0"
     inkscape:window-y="0"
     inkscape:window-maximized="1"
     inkscape:current-layer="svg1" />
  <!-- Shortened upload arrow (filled version) - horizontal bar is now half the length -->
  <path
     d="m 12.5,2.7111771 c 0.2761,0 0.5,-0.1587605 0.5,-0.3546135 C 13,2.1824767 12.8231,2.0376951 12.5899,2.0076663 L 12.5,2.00195 h -5 C 7.22386,2.00195 7,2.1607176 7,2.3565636 7,2.5306504 7.17688,2.6754392 7.41012,2.7054678 L 7.5,2.7111771 Z M 10.0001,13.347988 c 0.2455,0 0.4496,-0.125533 0.4919,-0.290925 l 0.008,-0.06376 -0.004,-8.3645256 1.6454,1.1690474 c 0.1734,0.123207 0.4428,0.1370652 0.6378,0.041447 L 12.8485,5.798288 C 13.0222,5.6752996 13.0418,5.4842339 12.907,5.3459345 L 12.8492,5.2967851 10.3574,3.5237173 C 10.2849,3.4722062 10.1956,3.4398087 10.102,3.4265319 l -0.10592,-0.00691 c -0.16097,0 -0.30416,0.053987 -0.39557,0.137817 L 7.14386,5.2963737 C 6.94846,5.4347653 6.94823,5.6592923 7.14336,5.7978753 7.3168,5.921061 7.58621,5.9348768 7.78117,5.8392302 L 7.85046,5.79823 9.496,4.6344521 9.5,12.993516 c 8e-5,0.195818 0.224,0.354472 0.5001,0.354472 z"
     fill="#212121"
     id="path1"
     style="stroke-width:0.842156" />
  <!-- Text label positioned at the bottom of the icon -->
  <text
     x="10.023613"
     y="18.24321"
     font-family="Arial, sans-serif"
     font-size="7px"
     fill="#212121"
     font-weight="bold"
     text-anchor="middle"
     id="text1"
     style="font-style:normal;font-variant:normal;font-weight:bold;font-stretch:normal;font-size:7px;font-family:FreeMono;-inkscape-font-specification:'FreeMono, Bold';font-variant-ligatures:normal;font-variant-caps:normal;font-variant-numeric:normal;font-variant-east-asian:normal;text-anchor:middle;fill:#212121">CSV</text>
</svg>
